# xmcd
# 
# Track frame offsets:
#     150
#     17453
#     37550
#     67950
#     86543
#     109488
#     127333
#     147650
#     176318
#     199625
# 
# Disc length: 2946
# 
# Revision: 1
# Processed by: cddbd v1.5.2PL0 Copyright (c) Steve Scherf et al.
# Submitted via: fre:ac v1.0.31
# 
DISCID=820b800a
DTITLE=Sơn Tuyền - Dạ Vũ Muôn Màu - Sơn Tuyền - ST Productions
DYEAR=1990
DGENRE=Pop
TTITLE0=Tàn Tro - Lv Khúc Lan
TTITLE1=Saying sorry
TTITLE2=Tất Cả Của Chàng
TTITLE3=Búp Bê Không Tình Yêu
TTITLE4=Hai Vì Sao Lạc - Anh Việt Thu
TTITLE5=Dạ Vũ Muôn Màu
TTITLE6=Nắng Hạ - Nguyễn Trung Cang
TTITLE7=Fantasy boy
TTITLE8=Lời Cuối Cho Em - Nguyễn Vũ
TTITLE9=Anh Đến Bên Em - Lv Lê Đức Cường
EXTD=
EXTT0=
EXTT1=
EXTT2=
EXTT3=
EXTT4=
EXTT5=
EXTT6=
EXTT7=
EXTT8=
EXTT9=
PLAYORDER=
